<svg width="98" height="18" viewBox="0 0 98 18" fill="none" xmlns="http://www.w3.org/2000/svg">
<path d="M5.37988 15.1758C4.71777 15.1758 4.11719 15.0645 3.57812 14.8418C3.04492 14.6133 2.58496 14.2939 2.19824 13.8838C1.81738 13.4736 1.52441 12.9873 1.31934 12.4248C1.11426 11.8623 1.01172 11.2471 1.01172 10.5791V10.21C1.01172 9.43652 1.12598 8.74805 1.35449 8.14453C1.58301 7.53516 1.89355 7.01953 2.28613 6.59766C2.67871 6.17578 3.12402 5.85645 3.62207 5.63965C4.12012 5.42285 4.63574 5.31445 5.16895 5.31445C5.84863 5.31445 6.43457 5.43164 6.92676 5.66602C7.4248 5.90039 7.83203 6.22852 8.14844 6.65039C8.46484 7.06641 8.69922 7.55859 8.85156 8.12695C9.00391 8.68945 9.08008 9.30469 9.08008 9.97266V10.7021H1.97852V9.375H7.4541V9.25195C7.43066 8.83008 7.34277 8.41992 7.19043 8.02148C7.04395 7.62305 6.80957 7.29492 6.4873 7.03711C6.16504 6.7793 5.72559 6.65039 5.16895 6.65039C4.7998 6.65039 4.45996 6.72949 4.14941 6.8877C3.83887 7.04004 3.57227 7.26855 3.34961 7.57324C3.12695 7.87793 2.9541 8.25 2.83105 8.68945C2.70801 9.12891 2.64648 9.63574 2.64648 10.21V10.5791C2.64648 11.0303 2.70801 11.4551 2.83105 11.8535C2.95996 12.2461 3.14453 12.5918 3.38477 12.8906C3.63086 13.1895 3.92676 13.4238 4.27246 13.5938C4.62402 13.7637 5.02246 13.8486 5.46777 13.8486C6.04199 13.8486 6.52832 13.7314 6.92676 13.4971C7.3252 13.2627 7.67383 12.9492 7.97266 12.5566L8.95703 13.3389C8.75195 13.6494 8.49121 13.9453 8.1748 14.2266C7.8584 14.5078 7.46875 14.7363 7.00586 14.9121C6.54883 15.0879 6.00684 15.1758 5.37988 15.1758ZM12.0771 5.49023L14.1602 8.95312L16.2695 5.49023H18.1768L15.0654 10.1836L18.2734 15H16.3926L14.1953 11.4316L11.998 15H10.1084L13.3076 10.1836L10.2051 5.49023H12.0771ZM25.5156 13.374V8.47852C25.5156 8.10352 25.4395 7.77832 25.2871 7.50293C25.1406 7.22168 24.918 7.00488 24.6191 6.85254C24.3203 6.7002 23.9512 6.62402 23.5117 6.62402C23.1016 6.62402 22.7412 6.69434 22.4307 6.83496C22.126 6.97559 21.8857 7.16016 21.71 7.38867C21.54 7.61719 21.4551 7.86328 21.4551 8.12695H19.8291C19.8291 7.78711 19.917 7.4502 20.0928 7.11621C20.2686 6.78223 20.5205 6.48047 20.8486 6.21094C21.1826 5.93555 21.5811 5.71875 22.0439 5.56055C22.5127 5.39648 23.0342 5.31445 23.6084 5.31445C24.2998 5.31445 24.9092 5.43164 25.4365 5.66602C25.9697 5.90039 26.3857 6.25488 26.6846 6.72949C26.9893 7.19824 27.1416 7.78711 27.1416 8.49609V12.9258C27.1416 13.2422 27.168 13.5791 27.2207 13.9365C27.2793 14.2939 27.3643 14.6016 27.4756 14.8594V15H25.7793C25.6973 14.8125 25.6328 14.5635 25.5859 14.2529C25.5391 13.9365 25.5156 13.6436 25.5156 13.374ZM25.7969 9.23438L25.8145 10.377H24.1709C23.708 10.377 23.2949 10.415 22.9316 10.4912C22.5684 10.5615 22.2637 10.6699 22.0176 10.8164C21.7715 10.9629 21.584 11.1475 21.4551 11.3701C21.3262 11.5869 21.2617 11.8418 21.2617 12.1348C21.2617 12.4336 21.3291 12.7061 21.4639 12.9521C21.5986 13.1982 21.8008 13.3945 22.0703 13.541C22.3457 13.6816 22.6826 13.752 23.0811 13.752C23.5791 13.752 24.0186 13.6465 24.3994 13.4355C24.7803 13.2246 25.082 12.9668 25.3047 12.6621C25.5332 12.3574 25.6562 12.0615 25.6738 11.7744L26.3682 12.5566C26.3271 12.8027 26.2158 13.0752 26.0342 13.374C25.8525 13.6729 25.6094 13.96 25.3047 14.2354C25.0059 14.5049 24.6484 14.7305 24.2324 14.9121C23.8223 15.0879 23.3594 15.1758 22.8438 15.1758C22.1992 15.1758 21.6338 15.0498 21.1475 14.7979C20.667 14.5459 20.292 14.209 20.0225 13.7871C19.7588 13.3594 19.627 12.8818 19.627 12.3545C19.627 11.8447 19.7266 11.3965 19.9258 11.0098C20.125 10.6172 20.4121 10.292 20.7871 10.0342C21.1621 9.77051 21.6133 9.57129 22.1406 9.43652C22.668 9.30176 23.2568 9.23438 23.9072 9.23438H25.7969ZM33.5049 13.8398C33.8916 13.8398 34.249 13.7607 34.5771 13.6025C34.9053 13.4443 35.1748 13.2275 35.3857 12.9521C35.5967 12.6709 35.7168 12.3516 35.7461 11.9941H37.293C37.2637 12.5566 37.0732 13.0811 36.7217 13.5674C36.376 14.0479 35.9219 14.4375 35.3594 14.7363C34.7969 15.0293 34.1787 15.1758 33.5049 15.1758C32.79 15.1758 32.166 15.0498 31.6328 14.7979C31.1055 14.5459 30.666 14.2002 30.3145 13.7607C29.9688 13.3213 29.708 12.8174 29.5322 12.249C29.3623 11.6748 29.2773 11.0684 29.2773 10.4297V10.0605C29.2773 9.42188 29.3623 8.81836 29.5322 8.25C29.708 7.67578 29.9688 7.16895 30.3145 6.72949C30.666 6.29004 31.1055 5.94434 31.6328 5.69238C32.166 5.44043 32.79 5.31445 33.5049 5.31445C34.249 5.31445 34.8994 5.4668 35.4561 5.77148C36.0127 6.07031 36.4492 6.48047 36.7656 7.00195C37.0879 7.51758 37.2637 8.10352 37.293 8.75977H35.7461C35.7168 8.36719 35.6055 8.0127 35.4121 7.69629C35.2246 7.37988 34.9668 7.12793 34.6387 6.94043C34.3164 6.74707 33.9385 6.65039 33.5049 6.65039C33.0068 6.65039 32.5879 6.75 32.248 6.94922C31.9141 7.14258 31.6475 7.40625 31.4482 7.74023C31.2549 8.06836 31.1143 8.43457 31.0264 8.83887C30.9443 9.2373 30.9033 9.64453 30.9033 10.0605V10.4297C30.9033 10.8457 30.9443 11.2559 31.0264 11.6602C31.1084 12.0645 31.2461 12.4307 31.4395 12.7588C31.6387 13.0869 31.9053 13.3506 32.2393 13.5498C32.5791 13.7432 33.001 13.8398 33.5049 13.8398ZM43.1025 5.49023V6.73828H37.9609V5.49023H43.1025ZM39.7012 3.17871H41.3271V12.6445C41.3271 12.9668 41.377 13.21 41.4766 13.374C41.5762 13.5381 41.7051 13.6465 41.8633 13.6992C42.0215 13.752 42.1914 13.7783 42.373 13.7783C42.5078 13.7783 42.6484 13.7666 42.7949 13.7432C42.9473 13.7139 43.0615 13.6904 43.1377 13.6729L43.1465 15C43.0176 15.041 42.8477 15.0791 42.6367 15.1143C42.4316 15.1553 42.1826 15.1758 41.8896 15.1758C41.4912 15.1758 41.125 15.0967 40.791 14.9385C40.457 14.7803 40.1904 14.5166 39.9912 14.1475C39.7979 13.7725 39.7012 13.2686 39.7012 12.6357V3.17871ZM47.9893 13.1543L50.0986 5.49023H52.7441L49.5361 15H47.9365L47.9893 13.1543ZM46.5391 5.49023L48.6572 13.1631L48.7012 15H47.0928L43.8848 5.49023H46.5391ZM56.5498 5.49023V15H54.0098V5.49023H56.5498ZM53.8516 3.01172C53.8516 2.64258 53.9805 2.33789 54.2383 2.09766C54.4961 1.85742 54.8418 1.7373 55.2754 1.7373C55.7031 1.7373 56.0459 1.85742 56.3037 2.09766C56.5674 2.33789 56.6992 2.64258 56.6992 3.01172C56.6992 3.38086 56.5674 3.68555 56.3037 3.92578C56.0459 4.16602 55.7031 4.28613 55.2754 4.28613C54.8418 4.28613 54.4961 4.16602 54.2383 3.92578C53.9805 3.68555 53.8516 3.38086 53.8516 3.01172ZM63.7832 12.3721C63.7832 12.1904 63.7305 12.0264 63.625 11.8799C63.5195 11.7334 63.3232 11.5986 63.0361 11.4756C62.7549 11.3467 62.3477 11.2295 61.8145 11.124C61.334 11.0186 60.8857 10.8867 60.4697 10.7285C60.0596 10.5645 59.7021 10.3682 59.3975 10.1396C59.0986 9.91113 58.8643 9.6416 58.6943 9.33105C58.5244 9.01465 58.4395 8.6543 58.4395 8.25C58.4395 7.85156 58.5244 7.47656 58.6943 7.125C58.8701 6.77344 59.1191 6.46289 59.4414 6.19336C59.7695 5.91797 60.168 5.7041 60.6367 5.55176C61.1113 5.39355 61.6445 5.31445 62.2363 5.31445C63.0625 5.31445 63.7715 5.44629 64.3633 5.70996C64.9609 5.97363 65.418 6.33691 65.7344 6.7998C66.0566 7.25684 66.2178 7.77832 66.2178 8.36426H63.6865C63.6865 8.11816 63.6338 7.89844 63.5283 7.70508C63.4287 7.50586 63.2705 7.35059 63.0537 7.23926C62.8428 7.12207 62.5674 7.06348 62.2275 7.06348C61.9463 7.06348 61.7031 7.11328 61.498 7.21289C61.293 7.30664 61.1348 7.43555 61.0234 7.59961C60.918 7.75781 60.8652 7.93359 60.8652 8.12695C60.8652 8.27344 60.8945 8.40527 60.9531 8.52246C61.0176 8.63379 61.1201 8.73633 61.2607 8.83008C61.4014 8.92383 61.583 9.01172 61.8057 9.09375C62.0342 9.16992 62.3154 9.24023 62.6494 9.30469C63.335 9.44531 63.9473 9.62988 64.4863 9.8584C65.0254 10.0811 65.4531 10.3857 65.7695 10.7725C66.0859 11.1533 66.2441 11.6543 66.2441 12.2754C66.2441 12.6973 66.1504 13.084 65.9629 13.4355C65.7754 13.7871 65.5059 14.0947 65.1543 14.3584C64.8027 14.6162 64.3809 14.8184 63.8887 14.9648C63.4023 15.1055 62.8545 15.1758 62.2451 15.1758C61.3604 15.1758 60.6104 15.0176 59.9951 14.7012C59.3857 14.3848 58.9229 13.9834 58.6064 13.4971C58.2959 13.0049 58.1406 12.501 58.1406 11.9854H60.54C60.5518 12.3311 60.6396 12.6094 60.8037 12.8203C60.9736 13.0312 61.1875 13.1836 61.4453 13.2773C61.709 13.3711 61.9932 13.418 62.2979 13.418C62.626 13.418 62.8984 13.374 63.1152 13.2861C63.332 13.1924 63.4961 13.0693 63.6074 12.917C63.7246 12.7588 63.7832 12.5771 63.7832 12.3721ZM70.5596 5.49023V15H68.0195V5.49023H70.5596ZM67.8613 3.01172C67.8613 2.64258 67.9902 2.33789 68.248 2.09766C68.5059 1.85742 68.8516 1.7373 69.2852 1.7373C69.7129 1.7373 70.0557 1.85742 70.3135 2.09766C70.5771 2.33789 70.709 2.64258 70.709 3.01172C70.709 3.38086 70.5771 3.68555 70.3135 3.92578C70.0557 4.16602 69.7129 4.28613 69.2852 4.28613C68.8516 4.28613 68.5059 4.16602 68.248 3.92578C67.9902 3.68555 67.8613 3.38086 67.8613 3.01172ZM77.3096 5.49023V7.2832H71.7725V5.49023H77.3096ZM73.1436 3.14355H75.6748V12.1348C75.6748 12.4102 75.71 12.6211 75.7803 12.7676C75.8564 12.9141 75.9678 13.0166 76.1143 13.0752C76.2607 13.1279 76.4453 13.1543 76.668 13.1543C76.8262 13.1543 76.9668 13.1484 77.0898 13.1367C77.2188 13.1191 77.3271 13.1016 77.415 13.084L77.4238 14.9473C77.207 15.0176 76.9727 15.0732 76.7207 15.1143C76.4688 15.1553 76.1904 15.1758 75.8857 15.1758C75.3291 15.1758 74.8428 15.085 74.4268 14.9033C74.0166 14.7158 73.7002 14.417 73.4775 14.0068C73.2549 13.5967 73.1436 13.0576 73.1436 12.3896V3.14355ZM94.7295 7.56445V15H92.1982V5.49023H94.5801L94.7295 7.56445ZM97.5947 5.42871L97.5508 7.77539C97.4277 7.75781 97.2783 7.74316 97.1025 7.73145C96.9326 7.71387 96.7773 7.70508 96.6367 7.70508C96.2793 7.70508 95.9688 7.75195 95.7051 7.8457C95.4473 7.93359 95.2305 8.06543 95.0547 8.24121C94.8848 8.41699 94.7559 8.63086 94.668 8.88281C94.5859 9.13477 94.5391 9.42188 94.5273 9.74414L94.0176 9.58594C94.0176 8.9707 94.0791 8.40527 94.2021 7.88965C94.3252 7.36816 94.5039 6.91406 94.7383 6.52734C94.9785 6.14062 95.2715 5.8418 95.6172 5.63086C95.9629 5.41992 96.3584 5.31445 96.8037 5.31445C96.9443 5.31445 97.0879 5.32617 97.2344 5.34961C97.3809 5.36719 97.501 5.39355 97.5947 5.42871Z" fill="black"/>
<circle cx="85" cy="10" r="6" fill="#2B8FEB"/>
</svg>
