<svg width="12" height="16" viewBox="0 0 12 16" fill="none" xmlns="http://www.w3.org/2000/svg">
<path d="M5.99978 0C2.93822 0 0.44751 2.49108 0.44751 5.55271C0.44751 8.4998 5.48518 15.3852 5.69968 15.6768L5.89987 15.9493C5.92328 15.9813 5.96056 16 5.99978 16C6.03961 16 6.07664 15.9813 6.1003 15.9493L6.30036 15.6768C6.51498 15.3852 11.5525 8.4998 11.5525 5.55271C11.5525 2.49108 9.06141 0 5.99978 0ZM5.99978 3.56374C7.09674 3.56374 7.98875 4.45579 7.98875 5.55271C7.98875 6.64907 7.0967 7.54168 5.99978 7.54168C4.90346 7.54168 4.01081 6.64907 4.01081 5.55271C4.01081 4.45579 4.90342 3.56374 5.99978 3.56374Z" fill="black"/>
</svg>
