<svg width="16" height="16" viewBox="0 0 16 16" fill="none" xmlns="http://www.w3.org/2000/svg">
<g clip-path="url(#clip0_155_2579)">
<mask id="mask0_155_2579" style="mask-type:luminance" maskUnits="userSpaceOnUse" x="0" y="0" width="16" height="14">
<path d="M16 0H0V13.28H16V0Z" fill="white"/>
</mask>
<g mask="url(#mask0_155_2579)">
<path d="M8.00011 15.4668C12.1238 15.4668 15.4668 12.1238 15.4668 8.00011C15.4668 3.87639 12.1238 0.533447 8.00011 0.533447C3.87639 0.533447 0.533447 3.87639 0.533447 8.00011C0.533447 12.1238 3.87639 15.4668 8.00011 15.4668Z" fill="black"/>
</g>
<path d="M8.00002 9.19998C9.69369 9.19998 11.0667 7.82699 11.0667 6.13332C11.0667 4.43964 9.69369 3.06665 8.00002 3.06665C6.30634 3.06665 4.93335 4.43964 4.93335 6.13332C4.93335 7.82699 6.30634 9.19998 8.00002 9.19998Z" fill="white"/>
<mask id="mask1_155_2579" style="mask-type:luminance" maskUnits="userSpaceOnUse" x="0" y="0" width="16" height="16">
<path d="M8.00011 15.4668C12.1238 15.4668 15.4668 12.1238 15.4668 8.00011C15.4668 3.87639 12.1238 0.533447 8.00011 0.533447C3.87639 0.533447 0.533447 3.87639 0.533447 8.00011C0.533447 12.1238 3.87639 15.4668 8.00011 15.4668Z" fill="white"/>
</mask>
<g mask="url(#mask1_155_2579)">
<path d="M8.00011 20.1335C11.0193 20.1335 13.4668 17.686 13.4668 14.6669C13.4668 11.6477 11.0193 9.2002 8.00011 9.2002C4.98096 9.2002 2.53345 11.6477 2.53345 14.6669C2.53345 17.686 4.98096 20.1335 8.00011 20.1335Z" fill="white"/>
</g>
</g>
<defs>
<clipPath id="clip0_155_2579">
<rect width="16" height="16" fill="white"/>
</clipPath>
</defs>
</svg>
