<svg width="12" height="16" viewBox="0 0 12 16" fill="none" xmlns="http://www.w3.org/2000/svg">
<path d="M9.43589 0H2.56404C1.67592 0 0.953369 0.722555 0.953369 1.61067V14.3893C0.953369 15.2774 1.67592 16 2.56404 16H9.43589C10.324 16 11.0466 15.2774 11.0466 14.3893V1.61067C11.0466 0.722555 10.324 0 9.43589 0ZM2.56404 0.740741H9.43589C9.91555 0.740741 10.3058 1.131 10.3058 1.61067V1.96893H1.69411V1.61067C1.69411 1.131 2.08437 0.740741 2.56404 0.740741ZM10.3058 2.70967V13.2083H1.69411V2.70967H10.3058ZM9.43589 15.2593H2.56404C2.08433 15.2593 1.69411 14.869 1.69411 14.3893V13.949H10.3058V14.3893C10.3058 14.869 9.91555 15.2593 9.43589 15.2593Z" fill="black"/>
<path d="M6.00001 14.2747C5.9026 14.2747 5.80705 14.3143 5.73816 14.3832C5.6689 14.4521 5.62964 14.5476 5.62964 14.645C5.62964 14.7424 5.6689 14.838 5.73816 14.9069C5.80705 14.9758 5.9026 15.0154 6.00001 15.0154C6.09742 15.0154 6.19297 14.9758 6.26182 14.9069C6.33071 14.838 6.37038 14.7424 6.37038 14.645C6.37038 14.5476 6.33075 14.4521 6.26182 14.3832C6.19297 14.3143 6.09742 14.2747 6.00001 14.2747Z" fill="black"/>
<path d="M3.16199 7.98747L4.31432 9.13977C4.38665 9.2121 4.48143 9.24825 4.57621 9.24825C4.67099 9.24825 4.7658 9.21207 4.8381 9.13977C4.98273 8.99514 4.98273 8.76062 4.8381 8.61599L3.94765 7.72558L4.8381 6.83514C4.98273 6.69051 4.98273 6.45599 4.8381 6.31133C4.69347 6.16673 4.45895 6.16673 4.31428 6.31133L3.16195 7.46366C3.0925 7.5331 3.05347 7.62733 3.05347 7.72555C3.05347 7.82377 3.0925 7.91803 3.16199 7.98747Z" fill="black"/>
<path d="M7.16198 9.13976C7.23431 9.21209 7.32909 9.24824 7.42386 9.24824C7.51864 9.24824 7.61342 9.21206 7.68575 9.13976L8.83809 7.98746C8.90753 7.91802 8.94657 7.8238 8.94657 7.72557C8.94657 7.62735 8.90753 7.53313 8.83809 7.46369L7.68575 6.31135C7.54109 6.16672 7.30664 6.16672 7.16194 6.31135C7.01731 6.45598 7.01731 6.6905 7.16194 6.83513L8.05238 7.72557L7.16194 8.61598C7.01735 8.76061 7.01735 8.99513 7.16198 9.13976Z" fill="black"/>
<path d="M5.46776 10.163C5.49187 10.1678 5.51587 10.17 5.53954 10.17C5.71298 10.17 5.86787 10.0476 5.90257 9.87099L6.71739 5.72284C6.7568 5.52214 6.62605 5.32743 6.42535 5.28803C6.22428 5.24858 6.02991 5.37936 5.99054 5.58006L5.17572 9.72821C5.13628 9.92891 5.26705 10.1236 5.46776 10.163Z" fill="black"/>
</svg>
