<?xml version="1.0" standalone="no"?>
<!DOCTYPE svg PUBLIC "-//W3C//DTD SVG 20010904//EN"
 "http://www.w3.org/TR/2001/REC-SVG-20010904/DTD/svg10.dtd">
<svg version="1.0" xmlns="http://www.w3.org/2000/svg"
 width="700.000000pt" height="700.000000pt" viewBox="0 0 700.000000 700.000000"
 preserveAspectRatio="xMidYMid meet">
<metadata>
Created by potrace 1.14, written by Peter Selinger 2001-2017
</metadata>
<g transform="translate(0.000000,700.000000) scale(0.100000,-0.100000)"
fill="#000000" stroke="none">
<path d="M1487 5433 c-2 -5 323 -975 722 -2158 l726 -2150 278 -3 278 -2 87
-76 c466 -405 1084 -550 1677 -394 450 119 843 416 1090 825 175 290 267 651
252 995 -24 546 -270 1028 -698 1367 -201 158 -480 290 -724 340 -47 10 -85
21 -85 26 0 4 92 281 205 615 113 334 205 611 205 615 0 4 -269 7 -599 7
l-599 0 -39 -142 c-22 -79 -111 -404 -199 -722 l-159 -579 -58 -36 c-187 -115
-393 -302 -519 -471 -40 -54 -74 -97 -75 -96 -2 1 -127 452 -278 1002 -151
549 -280 1009 -285 1022 l-10 22 -594 0 c-327 0 -597 -3 -599 -7z"/>
</g>
</svg>
