<svg width="20" height="20" viewBox="0 0 20 20" fill="none" xmlns="http://www.w3.org/2000/svg">
<path d="M16.7183 7.89083C16.7183 7.66917 16.64 7.44833 16.4842 7.29167L15.2992 6.12C15.1433 5.96417 14.9342 5.8725 14.7133 5.8725C14.4925 5.8725 14.2833 5.96333 14.1275 6.12L8.815 11.4192L5.8725 8.47667C5.71667 8.32083 5.5075 8.22917 5.28667 8.22917C5.06583 8.22917 4.85667 8.32 4.70083 8.47667L3.51583 9.64833C3.36 9.80417 3.28167 10.0258 3.28167 10.2475C3.28167 10.4692 3.36 10.6775 3.51583 10.8333L8.22917 15.5467C8.385 15.7025 8.60667 15.7942 8.815 15.7942C9.03667 15.7942 9.2575 15.7033 9.41417 15.5467L16.4842 8.47667C16.64 8.32083 16.7183 8.11167 16.7183 7.89083ZM20 10C20 15.5208 15.5208 20 10 20C4.47917 20 0 15.5208 0 10C0 4.47917 4.47917 0 10 0C15.5208 0 20 4.47917 20 10Z" fill="white"/>
</svg>
