<svg width="22" height="22" viewBox="0 0 22 22" fill="none" xmlns="http://www.w3.org/2000/svg">
<path d="M22 11C22 11.1764 21.8476 11.3753 21.6225 11.5065L4.00462 21.7799C3.77717 21.9125 3.43841 22 3.13594 22C2.83348 22 2.4923 21.9111 2.26727 21.7799L0.377475 20.6779C0.150022 20.5453 0 20.3689 0 20.1714C0 19.995 0.152442 19.7961 0.377475 19.6648L15.2369 11L0.377475 2.33517C0.150022 2.20254 0 2.005 0 1.82863C0 1.65226 0.152442 1.45331 0.377475 1.32209L2.26727 0.220113C2.49472 0.087481 2.83348 0 3.13594 0C3.43841 0 3.77959 0.0888919 4.00462 0.220113L21.6225 10.4935C21.85 10.6261 22 10.8236 22 11Z" fill="black"/>
</svg>
