<svg width="22" height="22" viewBox="0 0 22 22" fill="inherit" xmlns="http://www.w3.org/2000/svg">
<path d="M22 1.82863C22 2.005 21.8476 2.20395 21.6225 2.33517L6.76309 11L21.6225 19.6648C21.85 19.7975 22 19.995 22 20.1714C22 20.3477 21.8476 20.5467 21.6225 20.6779L19.7327 21.7799C19.5053 21.9125 19.1665 22 18.8641 22C18.5616 22 18.2204 21.9111 17.9954 21.7799L0.377475 11.5065C0.150022 11.3739 0 11.1764 0 11C0 10.8236 0.152442 10.6247 0.377475 10.4935L17.9954 0.220113C18.2228 0.087481 18.5616 0 18.8641 0C19.1665 0 19.5077 0.0888919 19.7327 0.220113L21.6225 1.32209C21.85 1.45472 22 1.63109 22 1.82863Z" fill="inherit"/>
</svg>
