<svg width="19" height="19" viewBox="0 0 19 19" fill="none" xmlns="http://www.w3.org/2000/svg">
<path d="M9.11615 1.72685C11.5222 1.72685 11.807 1.73754 12.7531 1.77973C13.6328 1.81855 14.1072 1.96595 14.4241 2.08915C14.8428 2.25118 15.145 2.44808 15.458 2.76088C15.7748 3.07762 15.9679 3.37635 16.1333 3.79492C16.2566 4.11166 16.4041 4.58929 16.4429 5.46524C16.4851 6.41489 16.4958 6.69956 16.4958 9.10125C16.4958 11.5029 16.4851 11.791 16.4429 12.7373C16.4041 13.6166 16.2566 14.0908 16.1333 14.4076C15.9713 14.8261 15.7748 15.1283 15.4613 15.4411C15.1445 15.7578 14.8456 15.9508 14.4274 16.1162C14.1106 16.2394 13.6322 16.3868 12.7564 16.4256C11.8064 16.4678 11.5216 16.4785 9.11896 16.4785C6.7163 16.4785 6.42814 16.4678 5.48148 16.4256C4.6018 16.3868 4.12734 16.2394 3.81048 16.1162C3.39174 15.9541 3.08951 15.7578 2.77602 15.4444C2.45915 15.1277 2.26611 14.829 2.10064 14.411C1.97738 14.0942 1.82993 13.616 1.79109 12.7406C1.74888 11.791 1.73819 11.5063 1.73819 9.10463C1.73819 6.70294 1.74888 6.41489 1.79109 5.46862C1.82993 4.58929 1.97738 4.11503 2.10064 3.7983C2.26273 3.37973 2.45972 3.07762 2.77264 2.76426C3.08951 2.44752 3.38836 2.25455 3.8071 2.08915C4.12397 1.96595 4.6018 1.81855 5.4781 1.77973C6.4242 1.73754 6.70955 1.72685 9.11559 1.72685H9.11615ZM9.11615 0.106031C6.67127 0.106031 6.36566 0.116721 5.40494 0.158915C4.44815 0.201109 3.79022 0.35582 3.22065 0.57748C2.62631 0.809266 2.12315 1.11531 1.62393 1.61827C1.12078 2.11785 0.814605 2.62024 0.582724 3.21095C0.360975 3.78423 0.2062 4.43796 0.163989 5.39436C0.121777 6.35807 0.111084 6.66356 0.111084 9.10744C0.111084 11.5513 0.121777 11.8568 0.163989 12.8171C0.2062 13.7735 0.360975 14.4312 0.582724 15.0005C0.815167 15.5946 1.12078 16.0976 1.62393 16.5966C2.12315 17.0956 2.62631 17.4056 3.21727 17.634C3.79078 17.8557 4.44477 18.0104 5.40156 18.0526C6.36172 18.0948 6.6679 18.1055 9.11277 18.1055C11.5576 18.1055 11.8638 18.0948 12.824 18.0526C13.7808 18.0104 14.4387 17.8557 15.0083 17.634C15.5992 17.4056 16.1024 17.0962 16.6016 16.5966C17.1008 16.097 17.4109 15.5946 17.6394 15.0039C17.8612 14.4306 18.016 13.7769 18.0582 12.8205C18.1004 11.8607 18.1111 11.5547 18.1111 9.11081C18.1111 6.66693 18.1004 6.36145 18.0582 5.40111C18.016 4.44471 17.8612 3.78704 17.6394 3.21771C17.4177 2.61967 17.1115 2.11728 16.6089 1.61771C16.1097 1.11869 15.6065 0.808704 15.0156 0.580293C14.4421 0.358633 13.7881 0.203922 12.8313 0.161728C11.8678 0.116158 11.5616 0.105469 9.11671 0.105469L9.11615 0.106031Z" fill="white"/>
<path d="M9.11627 4.4834C6.56277 4.4834 4.49048 6.55428 4.49048 9.10731C4.49048 11.6603 6.56221 13.7312 9.11627 13.7312C11.6703 13.7312 13.7421 11.6603 13.7421 9.10731C13.7421 6.55485 11.6703 4.4834 9.11627 4.4834ZM9.11627 12.1065C7.45934 12.1065 6.11589 10.7636 6.11589 9.10731C6.11589 7.45105 7.45934 6.10815 9.11627 6.10815C10.7732 6.10815 12.1166 7.45105 12.1166 9.10731C12.1166 10.7636 10.7732 12.1065 9.11627 12.1065Z" fill="white"/>
<path d="M15.0043 4.30031C15.0043 4.89665 14.5209 5.37992 13.9243 5.37992C13.3277 5.37992 12.8442 4.89665 12.8442 4.30031C12.8442 3.70397 13.3277 3.2207 13.9243 3.2207C14.5209 3.2207 15.0043 3.70397 15.0043 4.30031Z" fill="white"/>
</svg>
