<svg width="19" height="19" viewBox="0 0 19 19" fill="none" xmlns="http://www.w3.org/2000/svg">
<path d="M6.53955 5.64355H10.0978V7.60763H10.1486C10.6436 6.65155 11.8553 5.64355 13.6611 5.64355C17.4167 5.64355 18.111 8.16148 18.111 11.4361V18.1051H14.4023V12.1928C14.4023 10.7826 14.3753 8.96871 12.4731 8.96871C10.5413 8.96871 10.2469 10.5042 10.2469 12.0903V18.1051H6.53955V5.64355Z" fill="white"/>
<path d="M0.111084 5.64355H3.96823V18.1051H0.111084V5.64355Z" fill="white"/>
<path d="M3.96823 2.18239C3.96823 3.32955 3.10487 4.25932 2.03966 4.25932C0.974441 4.25932 0.111084 3.32955 0.111084 2.18239C0.111084 1.03524 0.974441 0.105469 2.03966 0.105469C3.10487 0.105469 3.96823 1.03524 3.96823 2.18239Z" fill="white"/>
</svg>
