<svg width="19" height="19" viewBox="0 0 19 19" fill="none" xmlns="http://www.w3.org/2000/svg">
<path d="M17.9283 3.98923C17.9283 3.98923 17.7522 2.2249 17.2111 1.44991C16.5254 0.430182 15.7593 0.425383 15.4077 0.365399C12.8905 0.105469 9.11108 0.105469 9.11108 0.105469H9.10433C9.10433 0.105469 5.3249 0.105469 2.80771 0.365399C2.45615 0.425383 1.69002 0.430182 1.00433 1.44991C0.462646 2.2249 0.290521 3.98923 0.290521 3.98923C0.290521 3.98923 0.111084 6.05908 0.111084 8.13293V10.0724C0.111084 12.1415 0.290521 14.2161 0.290521 14.2161C0.290521 14.2161 0.466584 15.9804 1.00433 16.7554C1.69002 17.7752 2.59002 17.74 2.99052 17.8503C4.43221 18.0455 9.11108 18.1055 9.11108 18.1055C9.11108 18.1055 12.8939 18.0959 15.4111 17.8407C15.7626 17.7808 16.5293 17.776 17.2145 16.7562C17.7556 15.9812 17.9316 14.2169 17.9316 14.2169C17.9316 14.2169 18.1111 12.1479 18.1111 10.0732V8.13373C18.1077 6.06388 17.9283 3.98923 17.9283 3.98923ZM7.24808 12.427V5.2337L12.1103 8.84314L7.24808 12.427Z" fill="white"/>
</svg>
