<svg width="20" height="20" viewBox="0 0 20 20" fill="none" xmlns="http://www.w3.org/2000/svg">
<path d="M18.2889 13.5009C17.7163 14.8549 16.8208 16.0481 15.6806 16.9761C14.5403 17.9041 13.1902 18.5386 11.7481 18.8242C10.306 19.1098 8.81585 19.0378 7.40801 18.6145C6.00016 18.1912 4.71744 17.4295 3.67199 16.3959C2.62655 15.3623 1.85021 14.0884 1.41085 12.6855C0.971482 11.2825 0.882482 9.79334 1.15161 8.34812C1.42075 6.90285 2.03982 5.54551 2.95472 4.39478C3.86961 3.24404 5.05247 2.33494 6.39987 1.74695" stroke="black" stroke-width="2.004" stroke-linecap="round" stroke-linejoin="round"/>
<path opacity="0.5" d="M19 9.99997C19 8.8181 18.7672 7.64778 18.3149 6.55585C17.8626 5.46392 17.1997 4.47177 16.364 3.63604C15.5282 2.80031 14.5361 2.13738 13.4442 1.68508C12.3522 1.23279 11.1819 1 10 1V9.99997H19Z" stroke="black" stroke-width="2.004" stroke-linecap="round" stroke-linejoin="round"/>
</svg>
