<svg width="22" height="22" viewBox="0 0 22 22" fill="none" xmlns="http://www.w3.org/2000/svg">
<path fill-rule="evenodd" clip-rule="evenodd" d="M11.0001 2.74996C6.44373 2.74996 2.75008 6.44361 2.75008 11C2.75008 15.5563 6.44373 19.25 11.0001 19.25C15.5564 19.25 19.2501 15.5563 19.2501 11C19.2501 6.44361 15.5564 2.74996 11.0001 2.74996ZM0.916748 11C0.916748 5.43109 5.43121 0.916626 11.0001 0.916626C16.5689 0.916626 21.0834 5.43109 21.0834 11C21.0834 16.5688 16.5689 21.0833 11.0001 21.0833C5.43121 21.0833 0.916748 16.5688 0.916748 11Z" fill="black"/>
<path opacity="0.5" fill-rule="evenodd" clip-rule="evenodd" d="M15.535 6.46517C15.7805 6.71068 15.8662 7.07384 15.7564 7.40323L13.8131 13.2332C13.7218 13.507 13.5071 13.7217 13.2334 13.813L7.40335 15.7563C7.07396 15.8661 6.7108 15.7804 6.46529 15.5349C6.21977 15.2893 6.13404 14.9262 6.24385 14.5968L8.18718 8.76681C8.27842 8.49308 8.4932 8.2783 8.76693 8.18705L14.5969 6.24372C14.9263 6.13393 15.2894 6.21965 15.535 6.46517ZM9.7815 9.78137L8.56284 13.4373L12.2188 12.2187L13.4374 8.56273L9.7815 9.78137Z" fill="black"/>
</svg>
